<svg t="1643111667929" class="icon" viewBox="0 0 1024 1024" version="1.1" xmlns="http://www.w3.org/2000/svg" p-id="2074" width="270" height="270"><path d="M697.83096889 63.39394333A484.0440411 484.0440411 0 0 0 512 26.54814777C243.88494222 26.54814777 26.54814777 243.88494222 26.54814777 512s217.33679445 485.45185223 485.45185223 485.45185223 485.45185223-217.33679445 485.45185223-485.45185223c0-64.56509667-12.62174777-127.43111111-36.84579556-185.83096889a24.27259221 24.27259221 0 0 0-44.83147889 18.59280555A435.49885667 435.49885667 0 0 1 948.90666667 512c0 241.29384334-195.61282333 436.90666667-436.90666667 436.90666667S75.09333333 753.29384334 75.09333333 512 270.70615666 75.09333333 512 75.09333333c58.15713223 0 114.688 11.35957333 167.23816334 33.13208889a24.27259221 24.27259221 0 0 0 18.59280555-44.83147889zM293.54666667 512c0-13.39847111 10.80130333-24.27259221 24.10268444-24.27259221h388.70129778c13.30138112 0 24.10268445 10.77703111 24.10268444 24.27259221 0 13.39847111-10.80130333 24.27259221-24.10268444 24.27259221H317.64935111A24.12695666 24.12695666 0 0 1 293.54666667 512z" fill="#dbdbdb" p-id="2075"></path></svg>